<svg xmlns="http://www.w3.org/2000/svg" viewBox="0 0 100 100">
  <!-- Globe background -->
  <circle cx="50" cy="50" r="45" fill="#4A90E2" stroke="#2E5C8A" stroke-width="2"/>
  
  <!-- Continents -->
  <!-- Africa -->
  <path d="M45 25 Q52 30 50 40 Q48 50 52 60 Q50 65 45 62 Q40 58 42 50 Q40 40 45 25" fill="#2E8B57"/>
  
  <!-- Europe -->
  <path d="M40 20 Q48 22 50 28 Q45 32 40 30 Q38 25 40 20" fill="#228B22"/>
  
  <!-- Asia -->
  <path d="M55 20 Q70 25 75 35 Q72 45 65 40 Q60 35 55 30 Q52 25 55 20" fill="#32CD32"/>
  
  <!-- Americas -->
  <path d="M25 30 Q35 28 32 40 Q30 55 25 65 Q20 60 22 45 Q20 35 25 30" fill="#228B22"/>
  
  <!-- Grid lines -->
  <circle cx="50" cy="50" r="45" fill="none" stroke="#ffffff" stroke-width="1" opacity="0.3"/>
  <line x1="5" y1="50" x2="95" y2="50" stroke="#ffffff" stroke-width="1" opacity="0.3"/>
  <line x1="50" y1="5" x2="50" y2="95" stroke="#ffffff" stroke-width="1" opacity="0.3"/>
  <ellipse cx="50" cy="50" rx="45" ry="22" fill="none" stroke="#ffffff" stroke-width="1" opacity="0.3"/>
  <ellipse cx="50" cy="50" rx="22" ry="45" fill="none" stroke="#ffffff" stroke-width="1" opacity="0.3"/>
</svg>
